  0
SECTION
  2
HEADER
  9
$ACADVER
  1
AC1015
  9
$ACADMAINTVER
 70
6
  9
$DWGCODEPAGE
  3
ANSI_1252
  9
$INSBASE
 10
0.0
 20
0.0
 30
0.0
  9
$EXTMIN
 10
1e+20
 20
1e+20
 30
1e+20
  9
$EXTMAX
 10
-1e+20
 20
-1e+20
 30
-1e+20
  9
$LIMMIN
 10
0.0
 20
0.0
  9
$LIMMAX
 10
420.0
 20
297.0
  9
$ORTHOMODE
 70
0
  9
$REGENMODE
 70
1
  9
$FILLMODE
 70
1
  9
$QTEXTMODE
 70
0
  9
$MIRRTEXT
 70
1
  9
$LTSCALE
 40
1.0
  9
$ATTMODE
 70
1
  9
$TEXTSIZE
 40
2.5
  9
$TRACEWID
 40
1.0
  9
$TEXTSTYLE
  7
Standard
  9
$CLAYER
  8
0
  9
$CELTYPE
  6
ByLayer
  9
$CECOLOR
 62
256
  9
$CELTSCALE
 40
1.0
  9
$DISPSILH
 70
0
  9
$DIMSCALE
 40
1.0
  9
$DIMASZ
 40
2.5
  9
$DIMEXO
 40
0.625
  9
$DIMDLI
 40
3.75
  9
$DIMRND
 40
0.0
  9
$DIMDLE
 40
0.0
  9
$DIMEXE
 40
1.25
  9
$DIMTP
 40
0.0
  9
$DIMTM
 40
0.0
  9
$DIMTXT
 40
2.5
  9
$DIMCEN
 40
2.5
  9
$DIMTSZ
 40
0.0
  9
$DIMTOL
 70
0
  9
$DIMLIM
 70
0
  9
$DIMTIH
 70
0
  9
$DIMTOH
 70
0
  9
$DIMSE1
 70
0
  9
$DIMSE2
 70
0
  9
$DIMTAD
 70
1
  9
$DIMZIN
 70
8
  9
$DIMBLK
  1

  9
$DIMASO
 70
1
  9
$DIMSHO
 70
1
  9
$DIMPOST
  1

  9
$DIMAPOST
  1

  9
$DIMALT
 70
0
  9
$DIMALTD
 70
3
  9
$DIMALTF
 40
0.03937007874
  9
$DIMLFAC
 40
1.0
  9
$DIMTOFL
 70
1
  9
$DIMTVP
 40
0.0
  9
$DIMTIX
 70
0
  9
$DIMSOXD
 70
0
  9
$DIMSAH
 70
0
  9
$DIMBLK1
  1

  9
$DIMBLK2
  1

  9
$DIMSTYLE
  2
ISO-25
  9
$DIMCLRD
 70
0
  9
$DIMCLRE
 70
0
  9
$DIMCLRT
 70
0
  9
$DIMTFAC
 40
1.0
  9
$DIMGAP
 40
0.625
  9
$DIMJUST
 70
0
  9
$DIMSD1
 70
0
  9
$DIMSD2
 70
0
  9
$DIMTOLJ
 70
0
  9
$DIMTZIN
 70
8
  9
$DIMALTZ
 70
0
  9
$DIMALTTZ
 70
0
  9
$DIMUPT
 70
0
  9
$DIMDEC
 70
2
  9
$DIMTDEC
 70
2
  9
$DIMALTU
 70
2
  9
$DIMALTTD
 70
3
  9
$DIMTXSTY
  7
Standard
  9
$DIMAUNIT
 70
0
  9
$DIMADEC
 70
0
  9
$DIMALTRND
 40
0.0
  9
$DIMAZIN
 70
0
  9
$DIMDSEP
 70
44
  9
$DIMATFIT
 70
3
  9
$DIMFRAC
 70
0
  9
$DIMLDRBLK
  1

  9
$DIMLUNIT
 70
2
  9
$DIMLWD
 70
-2
  9
$DIMLWE
 70
-2
  9
$DIMTMOVE
 70
0
  9
$LUNITS
 70
2
  9
$LUPREC
 70
4
  9
$SKETCHINC
 40
1.0
  9
$FILLETRAD
 40
10.0
  9
$AUNITS
 70
0
  9
$AUPREC
 70
2
  9
$MENU
  1
.
  9
$ELEVATION
 40
0.0
  9
$PELEVATION
 40
0.0
  9
$THICKNESS
 40
0.0
  9
$LIMCHECK
 70
0
  9
$CHAMFERA
 40
0.0
  9
$CHAMFERB
 40
0.0
  9
$CHAMFERC
 40
0.0
  9
$CHAMFERD
 40
0.0
  9
$SKPOLY
 70
0
  9
$TDCREATE
 40
2461304.074131944
  9
$TDUCREATE
 40
2458532.153996898
  9
$TDUPDATE
 40
2461304.074131944
  9
$TDUUPDATE
 40
2458532.1544311
  9
$TDINDWG
 40
0.0
  9
$TDUSRTIMER
 40
0.0
  9
$USRTIMER
 70
1
  9
$ANGBASE
 50
0.0
  9
$ANGDIR
 70
0
  9
$PDMODE
 70
0
  9
$PDSIZE
 40
0.0
  9
$PLINEWID
 40
0.0
  9
$SPLFRAME
 70
0
  9
$SPLINETYPE
 70
6
  9
$SPLINESEGS
 70
8
  9
$HANDSEED
  5
35
  9
$SURFTAB1
 70
6
  9
$SURFTAB2
 70
6
  9
$SURFTYPE
 70
6
  9
$SURFU
 70
6
  9
$SURFV
 70
6
  9
$UCSBASE
  2

  9
$UCSNAME
  2

  9
$UCSORG
 10
0.0
 20
0.0
 30
0.0
  9
$UCSXDIR
 10
1.0
 20
0.0
 30
0.0
  9
$UCSYDIR
 10
0.0
 20
1.0
 30
0.0
  9
$UCSORTHOREF
  2

  9
$UCSORTHOVIEW
 70
0
  9
$UCSORGTOP
 10
0.0
 20
0.0
 30
0.0
  9
$UCSORGBOTTOM
 10
0.0
 20
0.0
 30
0.0
  9
$UCSORGLEFT
 10
0.0
 20
0.0
 30
0.0
  9
$UCSORGRIGHT
 10
0.0
 20
0.0
 30
0.0
  9
$UCSORGFRONT
 10
0.0
 20
0.0
 30
0.0
  9
$UCSORGBACK
 10
0.0
 20
0.0
 30
0.0
  9
$PUCSBASE
  2

  9
$PUCSNAME
  2

  9
$PUCSORG
 10
0.0
 20
0.0
 30
0.0
  9
$PUCSXDIR
 10
1.0
 20
0.0
 30
0.0
  9
$PUCSYDIR
 10
0.0
 20
1.0
 30
0.0
  9
$PUCSORTHOREF
  2

  9
$PUCSORTHOVIEW
 70
0
  9
$PUCSORGTOP
 10
0.0
 20
0.0
 30
0.0
  9
$PUCSORGBOTTOM
 10
0.0
 20
0.0
 30
0.0
  9
$PUCSORGLEFT
 10
0.0
 20
0.0
 30
0.0
  9
$PUCSORGRIGHT
 10
0.0
 20
0.0
 30
0.0
  9
$PUCSORGFRONT
 10
0.0
 20
0.0
 30
0.0
  9
$PUCSORGBACK
 10
0.0
 20
0.0
 30
0.0
  9
$USERI1
 70
0
  9
$USERI2
 70
0
  9
$USERI3
 70
0
  9
$USERI4
 70
0
  9
$USERI5
 70
0
  9
$USERR1
 40
0.0
  9
$USERR2
 40
0.0
  9
$USERR3
 40
0.0
  9
$USERR4
 40
0.0
  9
$USERR5
 40
0.0
  9
$WORLDVIEW
 70
1
  9
$SHADEDGE
 70
3
  9
$SHADEDIF
 70
70
  9
$TILEMODE
 70
1
  9
$MAXACTVP
 70
64
  9
$PINSBASE
 10
0.0
 20
0.0
 30
0.0
  9
$PLIMCHECK
 70
0
  9
$PEXTMIN
 10
1e+20
 20
1e+20
 30
1e+20
  9
$PEXTMAX
 10
-1e+20
 20
-1e+20
 30
-1e+20
  9
$PLIMMIN
 10
0.0
 20
0.0
  9
$PLIMMAX
 10
420.0
 20
297.0
  9
$UNITMODE
 70
0
  9
$VISRETAIN
 70
1
  9
$PLINEGEN
 70
0
  9
$PSLTSCALE
 70
1
  9
$TREEDEPTH
 70
3020
  9
$CMLSTYLE
  2
Standard
  9
$CMLJUST
 70
0
  9
$CMLSCALE
 40
20.0
  9
$PROXYGRAPHICS
 70
1
  9
$MEASUREMENT
 70
1
  9
$CELWEIGHT
370
-1
  9
$ENDCAPS
280
0
  9
$JOINSTYLE
280
0
  9
$LWDISPLAY
290
0
  9
$INSUNITS
 70
4
  9
$HYPERLINKBASE
  1

  9
$STYLESHEET
  1

  9
$XEDIT
290
1
  9
$CEPSNTYPE
380
0
  9
$PSTYLEMODE
290
1
  9
$FINGERPRINTGUID
  2
{4576FC5A-9720-450B-AFA9-995543417BDB}
  9
$VERSIONGUID
  2
{1DE478C7-E36A-419C-995C-71F264761849}
  9
$EXTNAMES
290
1
  9
$PSVPSCALE
 40
0.0
  9
$OLESTARTUP
290
0
  0
ENDSEC
  0
SECTION
  2
CLASSES
  0
CLASS
  1
ACDBDICTIONARYWDFLT
  2
AcDbDictionaryWithDefault
  3
ObjectDBX Classes
 90
0
280
0
281
0
  0
CLASS
  1
SUN
  2
AcDbSun
  3
SCENEOE
 90
1153
280
0
281
0
  0
CLASS
  1
VISUALSTYLE
  2
AcDbVisualStyle
  3
ObjectDBX Classes
 90
4095
280
0
281
0
  0
CLASS
  1
MATERIAL
  2
AcDbMaterial
  3
ObjectDBX Classes
 90
1153
280
0
281
0
  0
CLASS
  1
SCALE
  2
AcDbScale
  3
ObjectDBX Classes
 90
1153
280
0
281
0
  0
CLASS
  1
TABLESTYLE
  2
AcDbTableStyle
  3
ObjectDBX Classes
 90
4095
280
0
281
0
  0
CLASS
  1
MLEADERSTYLE
  2
AcDbMLeaderStyle
  3
ACDB_MLEADERSTYLE_CLASS
 90
4095
280
0
281
0
  0
CLASS
  1
DICTIONARYVAR
  2
AcDbDictionaryVar
  3
ObjectDBX Classes
 90
0
280
0
281
0
  0
CLASS
  1
CELLSTYLEMAP
  2
AcDbCellStyleMap
  3
ObjectDBX Classes
 90
1152
280
0
281
0
  0
CLASS
  1
MENTALRAYRENDERSETTINGS
  2
AcDbMentalRayRenderSettings
  3
SCENEOE
 90
1024
280
0
281
0
  0
CLASS
  1
ACDBDETAILVIEWSTYLE
  2
AcDbDetailViewStyle
  3
ObjectDBX Classes
 90
1025
280
0
281
0
  0
CLASS
  1
ACDBSECTIONVIEWSTYLE
  2
AcDbSectionViewStyle
  3
ObjectDBX Classes
 90
1025
280
0
281
0
  0
CLASS
  1
RASTERVARIABLES
  2
AcDbRasterVariables
  3
ISM
 90
0
280
0
281
0
  0
CLASS
  1
ACDBPLACEHOLDER
  2
AcDbPlaceHolder
  3
ObjectDBX Classes
 90
0
280
0
281
0
  0
CLASS
  1
LAYOUT
  2
AcDbLayout
  3
ObjectDBX Classes
 90
0
280
0
281
0
  0
ENDSEC
  0
SECTION
  2
TABLES
  0
TABLE
  2
VPORT
  5
8
330
0
100
AcDbSymbolTable
 70
1
  0
VPORT
  5
23
330
8
100
AcDbSymbolTableRecord
100
AcDbViewportTableRecord
  2
*Active
 70
0
 10
0.0
 20
0.0
 11
1.0
 21
1.0
 12
0.0
 22
0.0
 13
0.0
 23
0.0
 14
0.5
 24
0.5
 15
0.5
 25
0.5
 16
0.0
 26
0.0
 36
1.0
 17
0.0
 27
0.0
 37
0.0
 40
1000.0
 41
1.34
 42
50.0
 43
0.0
 44
0.0
 50
0.0
 51
0.0
 71
0
 72
1000
 73
1
 74
3
 75
0
 76
0
 77
0
 78
0
281
0
 65
0
146
0.0
  0
ENDTAB
  0
TABLE
  2
LTYPE
  5
2
330
0
100
AcDbSymbolTable
 70
3
  0
LTYPE
  5
24
330
2
100
AcDbSymbolTableRecord
100
AcDbLinetypeTableRecord
  2
ByBlock
 70
0
  3

 72
65
 73
0
 40
0.0
  0
LTYPE
  5
25
330
2
100
AcDbSymbolTableRecord
100
AcDbLinetypeTableRecord
  2
ByLayer
 70
0
  3

 72
65
 73
0
 40
0.0
  0
LTYPE
  5
26
330
2
100
AcDbSymbolTableRecord
100
AcDbLinetypeTableRecord
  2
Continuous
 70
0
  3

 72
65
 73
0
 40
0.0
  0
ENDTAB
  0
TABLE
  2
LAYER
  5
1
330
0
100
AcDbSymbolTable
 70
3
  0
LAYER
  5
27
330
1
100
AcDbSymbolTableRecord
100
AcDbLayerTableRecord
  2
0
 70
0
 62
7
  6
Continuous
370
-3
390
13
  0
LAYER
  5
28
330
1
100
AcDbSymbolTableRecord
100
AcDbLayerTableRecord
  2
Defpoints
 70
0
 62
7
  6
Continuous
290
0
370
-3
390
13
  0
LAYER
  5
2F
330
1
100
AcDbSymbolTableRecord
100
AcDbLayerTableRecord
  2
CONTOURS
 70
0
 62
4
  6
Continuous
370
-3
390
13
  0
ENDTAB
  0
TABLE
  2
STYLE
  5
5
330
0
100
AcDbSymbolTable
 70
1
  0
STYLE
  5
29
330
5
100
AcDbSymbolTableRecord
100
AcDbTextStyleTableRecord
  2
Standard
 70
0
 40
0.0
 41
1.0
 50
0.0
 71
0
 42
2.5
  3
txt
  4

  0
ENDTAB
  0
TABLE
  2
VIEW
  5
7
330
0
100
AcDbSymbolTable
 70
0
  0
ENDTAB
  0
TABLE
  2
UCS
  5
6
330
0
100
AcDbSymbolTable
 70
0
  0
ENDTAB
  0
TABLE
  2
APPID
  5
3
330
0
100
AcDbSymbolTable
 70
3
  0
APPID
  5
2A
330
3
100
AcDbSymbolTableRecord
100
AcDbRegAppTableRecord
  2
ACAD
 70
0
  0
APPID
  5
32
330
3
100
AcDbSymbolTableRecord
100
AcDbRegAppTableRecord
  2
HATCHBACKGROUNDCOLOR
 70
0
  0
APPID
  5
33
330
3
100
AcDbSymbolTableRecord
100
AcDbRegAppTableRecord
  2
EZDXF
 70
0
  0
ENDTAB
  0
TABLE
  2
DIMSTYLE
  5
4
330
0
100
AcDbSymbolTable
 70
1
100
AcDbDimStyleTable
  0
DIMSTYLE
105
2B
330
4
100
AcDbSymbolTableRecord
100
AcDbDimStyleTableRecord
  2
Standard
 70
0
  3

  4

 40
1.0
 41
2.5
 42
0.625
 43
3.75
 44
1.25
 45
0.0
 46
0.0
 47
0.0
 48
0.0
140
2.5
141
2.5
142
0.0
143
0.03937007874
144
1.0
145
0.0
146
1.0
147
0.625
148
0.0
 71
0
 72
0
 73
0
 74
0
 75
0
 76
0
 77
1
 78
8
 79
3
170
0
171
3
172
1
173
0
174
0
175
0
176
0
177
0
178
0
179
2
271
2
272
2
273
2
274
3
275
0
276
0
277
2
278
44
279
0
280
0
281
0
282
0
283
0
284
8
285
0
286
0
288
0
289
3
371
-2
372
-2
  0
ENDTAB
  0
TABLE
  2
BLOCK_RECORD
  5
9
330
0
100
AcDbSymbolTable
 70
2
  0
BLOCK_RECORD
  5
17
330
9
100
AcDbSymbolTableRecord
100
AcDbBlockTableRecord
  2
*Model_Space
340
1A
  0
BLOCK_RECORD
  5
1B
330
9
100
AcDbSymbolTableRecord
100
AcDbBlockTableRecord
  2
*Paper_Space
340
1E
  0
ENDTAB
  0
ENDSEC
  0
SECTION
  2
BLOCKS
  0
BLOCK
  5
18
330
17
100
AcDbEntity
  8
0
100
AcDbBlockBegin
  2
*Model_Space
 70
0
 10
0.0
 20
0.0
 30
0.0
  3
*Model_Space
  1

  0
ENDBLK
  5
19
330
17
100
AcDbEntity
  8
0
100
AcDbBlockEnd
  0
BLOCK
  5
1C
330
1B
100
AcDbEntity
  8
0
100
AcDbBlockBegin
  2
*Paper_Space
 70
0
 10
0.0
 20
0.0
 30
0.0
  3
*Paper_Space
  1

  0
ENDBLK
  5
1D
330
1B
100
AcDbEntity
  8
0
100
AcDbBlockEnd
  0
ENDSEC
  0
SECTION
  2
ENTITIES
  0
LWPOLYLINE
  5
30
330
17
100
AcDbEntity
  8
CONTOURS
100
AcDbPolyline
 90
200
 70
0
 10
0.0
 20
0.0
 10
100.0
 20
49.91670832341408
 10
200.0
 20
99.33466539753061
 10
300.0
 20
147.76010333066978
 10
400.0
 20
194.70917115432525
 10
500.0
 20
239.7127693021015
 10
600.0
 20
282.3212366975177
 10
700.0
 20
322.1088436188455
 10
800.0
 20
358.6780454497614
 10
900.0
 20
391.6634548137417
 10
1000.0
 20
420.73549240394823
 10
1100.0
 20
445.6036800307177
 10
1200.0
 20
466.0195429836131
 10
1300.0
 20
481.77909270859647
 10
1400.0
 20
492.7248649942301
 10
1500.0
 20
498.74749330202724
 10
1600.0
 20
499.78680152075253
 10
1700.0
 20
495.8324052262343
 10
1800.0
 20
486.92381543909755
 10
1900.0
 20
473.15004384370724
 10
2000.0
 20
454.64871341284083
 10
2100.0
 20
431.60468332443685
 10
2200.0
 20
404.24820190979506
 10
2300.0
 20
372.8526060883601
 10
2400.0
 20
337.73159027557546
 10
2500.0
 20
299.2360720519783
 10
2600.0
 20
257.7506859107321
 10
2700.0
 20
213.6899401169149
 10
2800.0
 20
167.49407507795254
 10
2900.0
 20
119.62466460699122
 10
3000.0
 20
70.56000402993361
 10
3100.0
 20
20.790331216645246
 10
3200.0
 20
-29.187071713790044
 10
3300.0
 20
-78.87284707162411
 10
3400.0
 20
-127.77055101341561
 10
3500.0
 20
-175.3916138448099
 10
3600.0
 20
-221.26022164742622
 10
3700.0
 20
-264.9180704542467
 10
3800.0
 20
-305.92894547135944
 10
3900.0
 20
-343.88307959198687
 10
4000.0
 20
-378.4012476539641
 10
4100.0
 20
-409.13855553220515
 10
4200.0
 20
-435.7878862067941
 10
4300.0
 20
-458.08296837472744
 10
4400.0
 20
-475.801036944758
 10
4500.0
 20
-488.7650588325485
 10
4600.0
 20
-496.8455018167322
 10
4700.0
 20
-499.9616287820504
 10
4800.0
 20
-498.08230441792034
 10
4900.0
 20
-491.22630631216623
 10
5000.0
 20
-479.46213733156924
 10
5100.0
 20
-462.90734116386625
 10
5200.0
 20
-441.72732786007657
 10
5300.0
 20
-416.13372111195065
 10
5400.0
 20
-386.38224377799355
 10
5500.0
 20
-352.77016278519596
 10
5600.0
 20
-315.63331893616083
 10
5700.0
 20
-275.3427712988188
 10
5800.0
 20
-232.30108970687868
 10
5900.0
 20
-186.938332415118
 10
6000.0
 20
-139.70774909946294
 10
6100.0
 20
-91.08125213604794
 10
6200.0
 20
-41.544701408748196
 10
6300.0
 20
8.406950242174856
 10
6400.0
 20
58.27460242524682
 10
6500.0
 20
107.55999404390776
 10
6600.0
 20
155.77068175668893
 10
6700.0
 20
202.42496030829915
 10
6800.0
 20
247.05667556930408
 10
6900.0
 20
289.2198821941001
 10
7000.0
 20
328.49329935939454
 10
7100.0
 20
364.484520062938
 10
7200.0
 20
396.8339319245766
 10
7300.0
 20
425.2183103142822
 10
7400.0
 20
449.35404790581345
 10
7500.0
 20
468.99998838736946
 10
7600.0
 20
483.9598360157432
 10
7700.0
 20
494.0841169385002
 10
7800.0
 20
499.2716726873025
 10
7900.0
 20
499.470670919886
 10
8000.0
 20
494.6791233116909
 10
8100.0
 20
484.9449054225432
 10
8200.0
 20
470.3652783398866
 10
8300.0
 20
451.08591687814663
 10
8400.0
 20
427.2994540441402
 10
8500.0
 20
399.2435563117451
 10
8600.0
 20
367.19854893705667
 10
8700.0
 20
331.4846150410917
 10
8800.0
 20
292.45859644588086
 10
8900.0
 20
250.51042822894232
 10
9000.0
 20
206.0592426208783
 10
9100.0
 20
159.54918117467605
 10
9200.0
 20
111.44495705012382
 10
9300.0
 20
62.22721175353085
 10
9400.0
 20
12.387712726678883
 10
9500.0
 20
-37.57556023090465
 10
9600.0
 20
-87.16339061148983
 10
9700.0
 20
-135.88031320547123
 10
9800.0
 20
-183.2395646259642
 10
9900.0
 20
-228.76794688766066
 10
10000.0
 20
-272.0105554446849
 10
10100.0
 20
-312.53532444644105
 10
10200.0
 20
-349.9373437967712
 10
10300.0
 20
-383.84290488179124
 10
10400.0
 20
-413.91323454282684
 10
10500.0
 20
-439.84787998583505
 10
10600.0
 20
-461.3877108064033
 10
10700.0
 20
-478.31750813509393
 10
10800.0
 20
-490.4681150332458
 10
10900.0
 20
-497.71812665318873
 10
11000.0
 20
-499.9951032753517
 10
11100.0
 20
-497.2762941019946
 10
11200.0
 20
-489.5888645756587
 10
11300.0
 20
-477.0096249510445
 10
11400.0
 20
-459.66426283233784
 10
11500.0
 20
-437.72608734421425
 10
11600.0
 20
-411.41429748435445
 10
11700.0
 20
-380.99179195951666
 10
11800.0
 20
-346.7625423885612
 10
11900.0
 20
-309.06855611851665
 10
12000.0
 20
-268.28645900021746
 10
12100.0
 20
-224.82373226730073
 10
12200.0
 20
-179.11464111841434
 10
12300.0
 20
-131.61589568290046
 10
12400.0
 20
-82.8020877241547
 10
12500.0
 20
-33.160948675600345
 10
12600.0
 20
16.811523610568347
 10
12700.0
 20
66.61602070997111
 10
12800.0
 20
115.75491255076948
 10
12900.0
 20
163.7372195688465
 10
13000.0
 20
210.08351841332046
 10
13100.0
 20
254.33073218618685
 10
13200.0
 20
296.0367573536115
 10
13300.0
 20
334.7848810983012
 10
13400.0
 20
370.1879449762243
 10
13500.0
 20
401.8922132758105
 10
13600.0
 20
429.5809074282479
 10
13700.0
 20
452.9773711542309
 10
13800.0
 20
471.84783472205237
 10
13900.0
 20
486.003750697488
 10
14000.0
 20
495.30367784743515
 10
14100.0
 20
499.6546943739588
 10
14200.0
 20
499.01332635818085
 10
14300.0
 20
493.38598213730666
 10
14400.0
 20
482.8288882746387
 10
14500.0
 20
467.4475277623415
 10
14600.0
 20
447.3955860702521
 10
14700.0
 20
422.87341557146715
 10
14800.0
 20
394.12603368765815
 10
14900.0
 20
361.440674755988
 10
15000.0
 20
325.14392007855844
 10
15100.0
 20
285.5984348299943
 10
15200.0
 20
243.19934442689984
 10
15300.0
 20
198.37028656530603
 10
15400.0
 20
151.55917837285114
 10
15500.0
 20
103.2337409688983
 10
15600.0
 20
53.87682614972203
 10
15700.0
 20
3.9815918929686718
 10
15800.0
 20
-45.953425113840815
 10
15900.0
 20
-95.42929068709469
 10
16000.0
 20
-143.95165833253265
 10
16100.0
 20
-191.03570859200457
 10
16200.0
 20
-236.2109931992331
 10
16300.0
 20
-279.0261356433897
 10
16400.0
 20
-319.0533411739737
 10
16500.0
 20
-355.89267118456155
 10
16600.0
 20
-389.17603926714924
 10
16700.0
 20
-418.5708890098734
 10
16800.0
 20
-443.7835167907523
 10
16900.0
 20
-464.5620063671842
 10
17000.0
 20
-480.6987459397784
 10
17100.0
 20
-492.0325025408217
 10
17200.0
 20
-498.45003302079806
 10
17300.0
 20
-499.88721553650555
 10
17400.0
 20
-496.3296902353166
 10
17500.0
 20
-487.8130027340788
 10
17600.0
 20
-474.42224895906196
 10
17700.0
 20
-456.2912248955923
 10
17800.0
 20
-433.60108974279063
 10
17900.0
 20
-406.5785558307443
 10
18000.0
 20
-375.493623385838
 10
18100.0
 20
-340.65688277774996
 10
18200.0
 20
-302.41641120314205
 10
18300.0
 20
-261.15429481336577
 10
18400.0
 20
-217.28281103594838
 10
18500.0
 20
-171.24030923480626
 10
18600.0
 20
-123.48683086831045
 10
18700.0
 20
-74.4995129070994
 10
18800.0
 20
-24.76782043918371
 10
18900.0
 20
25.211343903405613
 10
19000.0
 20
74.93860483147617
 10
19100.0
 20
123.91710399147992
 10
19200.0
 20
171.6574644099477
 10
19300.0
 20
217.6826801864466
 10
19400.0
 20
261.5328825788482
 10
19500.0
 20
302.7699348598005
 10
19600.0
 20
340.9818100340678
 10
19700.0
 20
375.7867076760741
 10
19800.0
 20
406.83686875355266
 10
19900.0
 20
433.8220503208336
  0
LWPOLYLINE
  5
31
330
17
100
AcDbEntity
  8
CONTOURS
100
AcDbPolyline
 90
60
 70
1
 10
4500.0
 20
0.0
 10
4491.78284305241
 20
156.7926949014802
 10
4467.221401100709
 20
311.86753622663895
 10
4426.58477444273
 20
463.5254915624211
 10
4370.318186463901
 20
610.1049646137002
 10
4299.038105676658
 20
749.9999999999999
 10
4213.525491562421
 20
881.6778784387097
 10
4114.717238216092
 20
1003.6959095382873
 10
4003.695909538287
 20
1114.7172382160911
 10
3881.6778784387097
 20
1213.5254915624212
 10
3750.0
 20
1299.038105676658
 10
3610.1049646137008
 20
1370.3181864639014
 10
3463.525491562421
 20
1426.5847744427303
 10
3311.867536226639
 20
1467.2214011007086
 10
3156.79269490148
 20
1491.78284305241
 10
3000.0000000000005
 20
1500.0
 10
2843.20730509852
 20
1491.78284305241
 10
2688.132463773361
 20
1467.2214011007086
 10
2536.474508437579
 20
1426.5847744427306
 10
2389.8950353863
 20
1370.3181864639014
 10
2250.0000000000005
 20
1299.038105676658
 10
2118.3221215612903
 20
1213.5254915624212
 10
1996.3040904617133
 20
1114.7172382160918
 10
1885.2827617839089
 20
1003.6959095382875
 10
1786.474508437579
 20
881.6778784387099
 10
1700.961894323342
 20
749.9999999999999
 10
1629.6818135360986
 20
610.1049646137001
 10
1573.4152255572697
 20
463.5254915624213
 10
1532.7785988992914
 20
311.86753622663895
 10
1508.21715694759
 20
156.79269490147993
 10
1500.0
 20
8.498308346471969e-13
 10
1508.21715694759
 20
-156.7926949014796
 10
1532.7785988992914
 20
-311.8675362266386
 10
1573.4152255572694
 20
-463.52549156242094
 10
1629.6818135360986
 20
-610.1049646137003
 10
1700.9618943233418
 20
-749.9999999999995
 10
1786.4745084375786
 20
-881.6778784387095
 10
1885.2827617839087
 20
-1003.6959095382873
 10
1996.3040904617123
 20
-1114.7172382160911
 10
2118.3221215612903
 20
-1213.525491562421
 10
2249.999999999999
 20
-1299.0381056766576
 10
2389.895035386299
 20
-1370.3181864639007
 10
2536.4745084375786
 20
-1426.5847744427303
 10
2688.1324637733605
 20
-1467.2214011007084
 10
2843.2073050985186
 20
-1491.78284305241
 10
2999.9999999999995
 20
-1500.0
 10
3156.7926949014795
 20
-1491.78284305241
 10
3311.867536226639
 20
-1467.2214011007084
 10
3463.525491562421
 20
-1426.5847744427306
 10
3610.1049646137
 20
-1370.3181864639016
 10
3750.0
 20
-1299.038105676658
 10
3881.6778784387093
 20
-1213.5254915624214
 10
4003.6959095382877
 20
-1114.7172382160911
 10
4114.717238216092
 20
-1003.6959095382872
 10
4213.525491562421
 20
-881.6778784387101
 10
4299.038105676658
 20
-749.9999999999995
 10
4370.318186463901
 20
-610.1049646137002
 10
4426.58477444273
 20
-463.52549156242145
 10
4467.221401100709
 20
-311.8675362266385
 10
4491.78284305241
 20
-156.79269490148013
  0
ENDSEC
  0
SECTION
  2
OBJECTS
  0
DICTIONARY
  5
A
330
0
100
AcDbDictionary
281
1
  3
ACAD_COLOR
350
B
  3
ACAD_GROUP
350
C
  3
ACAD_LAYOUT
350
D
  3
ACAD_MATERIAL
350
E
  3
ACAD_MLEADERSTYLE
350
F
  3
ACAD_MLINESTYLE
350
10
  3
ACAD_PLOTSETTINGS
350
11
  3
ACAD_PLOTSTYLENAME
350
12
  3
ACAD_SCALELIST
350
14
  3
ACAD_TABLESTYLE
350
15
  3
ACAD_VISUALSTYLE
350
16
  3
EZDXF_META
350
2D
  0
DICTIONARY
  5
B
330
A
100
AcDbDictionary
281
1
  0
DICTIONARY
  5
C
330
A
100
AcDbDictionary
281
1
  0
DICTIONARY
  5
D
330
A
100
AcDbDictionary
281
1
  3
Model
350
1A
  3
Layout1
350
1E
  0
DICTIONARY
  5
E
330
A
100
AcDbDictionary
281
1
  3
ByBlock
350
1F
  3
ByLayer
350
20
  3
Global
350
21
  0
DICTIONARY
  5
F
330
A
100
AcDbDictionary
281
1
  3
Standard
350
2C
  0
DICTIONARY
  5
10
330
A
100
AcDbDictionary
281
1
  3
Standard
350
22
  0
DICTIONARY
  5
11
330
A
100
AcDbDictionary
281
1
  0
ACDBDICTIONARYWDFLT
  5
12
330
A
100
AcDbDictionary
281
1
  3
Normal
350
13
100
AcDbDictionaryWithDefault
340
13
  0
ACDBPLACEHOLDER
  5
13
330
12
  0
DICTIONARY
  5
14
330
A
100
AcDbDictionary
281
1
  0
DICTIONARY
  5
15
330
A
100
AcDbDictionary
281
1
  0
DICTIONARY
  5
16
330
A
100
AcDbDictionary
281
1
  0
LAYOUT
  5
1A
330
D
100
AcDbPlotSettings
  1

  4
A3
  6

 40
7.5
 41
20.0
 42
7.5
 43
20.0
 44
420.0
 45
297.0
 46
0.0
 47
0.0
 48
0.0
 49
0.0
140
0.0
141
0.0
142
1.0
143
1.0
 70
1024
 72
1
 73
0
 74
5
  7

 75
16
 76
0
 77
2
 78
300
147
1.0
148
0.0
149
0.0
100
AcDbLayout
  1
Model
 70
1
 71
0
 10
0.0
 20
0.0
 11
420.0
 21
297.0
 12
0.0
 22
0.0
 32
0.0
 14
1e+20
 24
1e+20
 34
1e+20
 15
-1e+20
 25
-1e+20
 35
-1e+20
146
0.0
 13
0.0
 23
0.0
 33
0.0
 16
1.0
 26
0.0
 36
0.0
 17
0.0
 27
1.0
 37
0.0
 76
1
330
17
  0
LAYOUT
  5
1E
330
D
100
AcDbPlotSettings
  1

  4
A3
  6

 40
7.5
 41
20.0
 42
7.5
 43
20.0
 44
420.0
 45
297.0
 46
0.0
 47
0.0
 48
0.0
 49
0.0
140
0.0
141
0.0
142
1.0
143
1.0
 70
0
 72
1
 73
0
 74
5
  7

 75
16
 76
0
 77
2
 78
300
147
1.0
148
0.0
149
0.0
100
AcDbLayout
  1
Layout1
 70
1
 71
1
 10
0.0
 20
0.0
 11
420.0
 21
297.0
 12
0.0
 22
0.0
 32
0.0
 14
1e+20
 24
1e+20
 34
1e+20
 15
-1e+20
 25
-1e+20
 35
-1e+20
146
0.0
 13
0.0
 23
0.0
 33
0.0
 16
1.0
 26
0.0
 36
0.0
 17
0.0
 27
1.0
 37
0.0
 76
1
330
1B
  0
MATERIAL
  5
1F
102
{ACAD_REACTORS
330
E
102
}
330
E
100
AcDbMaterial
  1
ByBlock
  2

 70
0
 40
1.0
 71
1
 41
1.0
 91
-1023410177
 42
1.0
 72
1
  3

 73
1
 74
1
 75
1
 44
0.5
 73
0
 45
1.0
 46
1.0
 77
1
  4

 78
1
 79
1
170
1
 48
1.0
171
1
  6

172
1
173
1
174
1
140
1.0
141
1.0
175
1
  7

176
1
177
1
178
1
143
1.0
179
1
  8

270
1
271
1
272
1
145
1.0
146
1.0
273
1
  9

274
1
275
1
276
1
 42
1.0
 72
1
  3

 73
1
 74
1
 75
1
 94
63
  0
MATERIAL
  5
20
102
{ACAD_REACTORS
330
E
102
}
330
E
100
AcDbMaterial
  1
ByLayer
  2

 70
0
 40
1.0
 71
1
 41
1.0
 91
-1023410177
 42
1.0
 72
1
  3

 73
1
 74
1
 75
1
 44
0.5
 73
0
 45
1.0
 46
1.0
 77
1
  4

 78
1
 79
1
170
1
 48
1.0
171
1
  6

172
1
173
1
174
1
140
1.0
141
1.0
175
1
  7

176
1
177
1
178
1
143
1.0
179
1
  8

270
1
271
1
272
1
145
1.0
146
1.0
273
1
  9

274
1
275
1
276
1
 42
1.0
 72
1
  3

 73
1
 74
1
 75
1
 94
63
  0
MATERIAL
  5
21
102
{ACAD_REACTORS
330
E
102
}
330
E
100
AcDbMaterial
  1
Global
  2

 70
0
 40
1.0
 71
1
 41
1.0
 91
-1023410177
 42
1.0
 72
1
  3

 73
1
 74
1
 75
1
 44
0.5
 73
0
 45
1.0
 46
1.0
 77
1
  4

 78
1
 79
1
170
1
 48
1.0
171
1
  6

172
1
173
1
174
1
140
1.0
141
1.0
175
1
  7

176
1
177
1
178
1
143
1.0
179
1
  8

270
1
271
1
272
1
145
1.0
146
1.0
273
1
  9

274
1
275
1
276
1
 42
1.0
 72
1
  3

 73
1
 74
1
 75
1
 94
63
  0
MLINESTYLE
  5
22
102
{ACAD_REACTORS
330
10
102
}
330
10
100
AcDbMlineStyle
  2
Standard
 70
0
  3

 62
256
 51
90.0
 52
90.0
 71
2
 49
0.5
 62
256
  6
BYLAYER
 49
-0.5
 62
256
  6
BYLAYER
  0
MLEADERSTYLE
  5
2C
102
{ACAD_REACTORS
330
F
102
}
330
F
100
AcDbMLeaderStyle
179
2
170
2
171
1
172
0
 90
2
 40
0.0
 41
0.0
173
1
 91
-1056964608
 92
-2
290
1
 42
2.0
291
1
 43
8.0
  3
Standard
 44
4.0
300

342
29
174
1
175
1
176
0
178
1
 93
-1056964608
 45
4.0
292
0
297
0
 46
4.0
 94
-1056964608
 47
1.0
 49
1.0
140
1.0
294
1
141
0.0
177
0
142
1.0
295
0
296
0
143
3.75
271
0
272
9
273
9
  0
DICTIONARY
  5
2D
330
A
100
AcDbDictionary
280
1
281
1
  3
CREATED_BY_EZDXF
350
2E
  3
WRITTEN_BY_EZDXF
350
34
  0
DICTIONARYVAR
  5
2E
330
2D
100
DictionaryVariables
280
0
  1
1.4.4 @ 2026-09-19T17:46:45.400902+00:00
  0
DICTIONARYVAR
  5
34
330
2D
100
DictionaryVariables
280
0
  1
1.4.4 @ 2026-09-19T17:46:45.402207+00:00
  0
ENDSEC
  0
EOF
